<?xml version="1.0" encoding="UTF-8"?>
<svg id="Layer_2" data-name="Layer 2" xmlns="http://www.w3.org/2000/svg" version="1.1" viewBox="0 0 186.6 166.3">
  <defs>
    <style>
      .cls-1 {
        fill: #b82827;
      }

      .cls-1, .cls-2 {
        stroke-width: 0px;
      }

      .cls-2 {
        fill: #f7bf16;
      }
    </style>
  </defs>
  <g id="Layer_2-2" data-name="Layer 2-2">
    <path class="cls-1" d="M132.2,133c-9.7-3.2-13.2-6.3-21.7-8.7-3.8-1.1-9.6-2.4-17.2-2.4h0c-7.6,0-13.4,1.4-17.2,2.4-8.5,2.4-12.1,5.4-21.7,8.7-6.4,2.1-12.2,3.2-15.1,2,4.6,9.8,9.3,21.3,13.9,31.1,5.2.5,9.2-.1,12-.8,6.9-1.7,9.5-4.7,16.6-6.7,4.7-1.3,8.8-1.5,11.6-1.4h0c2.8,0,6.9,0,11.6,1.4,7.1,2,9.7,5,16.6,6.7,2.8.7,6.8,1.3,12,.8,4.6-9.8,9.3-21.3,13.9-31.1-2.9,1.2-8.8.2-15.1-2Z"/>
    <path class="cls-1" d="M17.5,127.4c2,3.1,7.5,2.1,8.5,1.9,9.1-2.1,10.6-4.9,17.5-8.1,5.3-2.1,10.2-2.6,11.2.1.4,1,2.5,8-10.8,6.6-4.5-.5-7,0-8.7,1.8-3.6,4,3.3,12.4,5.9,20-.6.3-2.7,2-6.2.5s-8.7-8.5-9.5-9.7c-2.3-3.4-4.8-7.9-7.9-13.1h0Z"/>
    <path class="cls-1" d="M.3,90.1c2.6,1,8.3,2.7,12.4,1.6,7.6-2.1,13.6-4.5,17.4-4.2.2,7.3,5.9,14.2,10.5,22.3-5.2-1.3-11.5-.6-17.2,2.7-5.3,3.1-10.4,5-16.3,4.3-1.5-2-4.6-5.9-5.8-11.2s-1.6-11.8-1-15.5h0Z"/>
    <path class="cls-1" d="M169.1,127.9c-2,3.1-7.5,2.1-8.5,1.9-9.1-2.1-10.6-4.9-17.5-8.1-5.4-2.1-10.2-2.6-11.2.1-.4,1-2.5,8,10.8,6.6,4.5-.5,7,0,8.7,1.8,3.6,4-3.3,12.4-5.9,20,.6.3,2.7,2,6.2.5s8.7-8.5,9.5-9.7c2.3-3.4,4.8-7.9,7.9-13.1h0Z"/>
    <path class="cls-1" d="M186.4,90.6c-2.6,1-8.3,2.7-12.4,1.6-7.6-2.1-13.6-4.5-17.4-4.2-.2,7.3-5.9,14.2-10.5,22.3,5.1-1.3,11.5-.6,17.2,2.7,5.3,3.1,10.4,5,16.3,4.3,1.6-2,4.6-5.9,5.8-11.2,1.2-5.2,1.6-11.8,1-15.5h0Z"/>
    <polygon class="cls-2" points="93.3 35.5 98.8 52.5 116.7 52.5 102.2 63 107.8 80 93.3 69.5 78.8 80 84.3 63 69.9 52.5 87.8 52.5 93.3 35.5"/>
    <polygon class="cls-2" points="93.3 0 95.3 6.1 101.7 6.1 96.5 9.9 98.5 16 93.3 12.2 88.1 16 90.1 9.9 84.9 6.1 91.3 6.1 93.3 0"/>
    <polygon class="cls-2" points="93.3 0 95.3 6.1 101.7 6.1 96.5 9.9 98.5 16 93.3 12.2 88.1 16 90.1 9.9 84.9 6.1 91.3 6.1 93.3 0"/>
    <polygon class="cls-2" points="93.3 0 95.3 6.1 101.7 6.1 96.5 9.9 98.5 16 93.3 12.2 88.1 16 90.1 9.9 84.9 6.1 91.3 6.1 93.3 0"/>
    <polygon class="cls-2" points="93.3 0 95.3 6.1 101.7 6.1 96.5 9.9 98.5 16 93.3 12.2 88.1 16 90.1 9.9 84.9 6.1 91.3 6.1 93.3 0"/>
    <polygon class="cls-2" points="93.3 0 95.3 6.1 101.7 6.1 96.5 9.9 98.5 16 93.3 12.2 88.1 16 90.1 9.9 84.9 6.1 91.3 6.1 93.3 0"/>
    <polygon class="cls-2" points="93.3 0 95.3 6.1 101.7 6.1 96.5 9.9 98.5 16 93.3 12.2 88.1 16 90.1 9.9 84.9 6.1 91.3 6.1 93.3 0"/>
    <polygon class="cls-2" points="93.3 0 95.3 6.1 101.7 6.1 96.5 9.9 98.5 16 93.3 12.2 88.1 16 90.1 9.9 84.9 6.1 91.3 6.1 93.3 0"/>
    <polygon class="cls-2" points="93.3 0 95.3 6.1 101.7 6.1 96.5 9.9 98.5 16 93.3 12.2 88.1 16 90.1 9.9 84.9 6.1 91.3 6.1 93.3 0"/>
    <polygon class="cls-2" points="93.3 0 95.3 6.1 101.7 6.1 96.5 9.9 98.5 16 93.3 12.2 88.1 16 90.1 9.9 84.9 6.1 91.3 6.1 93.3 0"/>
    <polygon class="cls-2" points="65.8 6.8 70.4 11.2 76.1 8.3 73.3 14 77.9 18.5 71.5 17.6 68.7 23.3 67.6 17 61.2 16.1 66.9 13.1 65.8 6.8"/>
    <polygon class="cls-2" points="44.7 25.5 50.8 27.4 54.5 22.1 54.6 28.5 60.8 30.3 54.7 32.5 54.9 38.9 51 33.8 44.9 35.9 48.6 30.6 44.7 25.5"/>
    <polygon class="cls-2" points="34.6 52 40.9 50.7 41.7 44.3 44.8 50 51.1 48.7 46.8 53.4 49.9 59 44 56.3 39.7 61 40.4 54.7 34.6 52"/>
    <polygon class="cls-2" points="38 80 43 76 40.8 70 46.1 73.5 51.1 69.5 49.5 75.7 54.8 79.2 48.4 79.5 46.7 85.7 44.4 79.7 38 80"/>
    <polygon class="cls-2" points="54.1 103.3 56.7 97.4 51.9 93.2 58.2 93.8 60.8 87.9 62.2 94.2 68.6 94.8 63.1 98 64.4 104.3 59.6 100.1 54.1 103.3"/>
    <polygon class="cls-2" points="79.1 116.5 78.7 110 72.4 108.5 78.4 106.1 77.9 99.7 82.1 104.6 88 102.2 84.6 107.6 88.8 112.5 82.5 111 79.1 116.5"/>
    <polygon class="cls-2" points="107.4 116.5 104 111 97.8 112.5 101.9 107.6 98.5 102.2 104.5 104.6 108.6 99.7 108.2 106.1 114.1 108.5 107.9 110 107.4 116.5"/>
    <polygon class="cls-2" points="132.5 103.3 126.9 100.1 122.1 104.3 123.5 98 118 94.8 124.4 94.2 125.7 87.9 128.3 93.8 134.7 93.2 129.9 97.4 132.5 103.3"/>
    <polygon class="cls-2" points="148.5 80 142.1 79.7 139.8 85.7 138.1 79.5 131.7 79.2 137.1 75.7 135.4 69.5 140.4 73.5 145.8 70 143.5 76 148.5 80"/>
    <polygon class="cls-2" points="151.9 52 146.1 54.7 146.9 61 142.5 56.3 136.7 59 139.8 53.4 135.4 48.7 141.7 50 144.9 44.3 145.6 50.7 151.9 52"/>
    <polygon class="cls-2" points="141.9 25.5 138 30.6 141.7 35.9 135.6 33.8 131.7 38.9 131.9 32.5 125.8 30.3 132 28.5 132.1 22.1 135.8 27.4 141.9 25.5"/>
    <polygon class="cls-2" points="120.7 6.8 119.7 13.1 125.3 16.1 119 17 117.9 23.3 115.1 17.6 108.7 18.5 113.3 14 110.5 8.3 116.1 11.2 120.7 6.8"/>
    <path class="cls-2" d="M18.9,121.9c0-.6,0-1.1,0-1.7,0-.6,0-1.1,0-1.7,0-.3,0-.5-.3-.6-.3-.2-.6-.1-.9-.1-1.3,0-2.6.3-3.8.6-.2,0-.4.3-.2.6,0,0,0,0,0,0h0c.2.5.4.9.8,1.3,0,0,0,0,0,.1.2.4.5.8.8,1.1.6.7,1.2,1.4,2,1.8,0,0,.2,0,.3,0,.3.1.8.1,1.1,0,.4-.3.3-1,.3-1.4h0Z"/>
    <path class="cls-2" d="M25.2,121.8c.6,1,1.2,1.9,1.9,2.9.3.4.6.8.9,1.3,0,0,0,0,0,0,.5-.2,1.1-.3,1.6-.5l-.2-.2c-.4-.4-.7-.8-1-1.2-.7-.9-1.3-1.9-1.9-2.9-.7-1-1.4-2-2-3.1-.5-.9-1-1.8-1.6-2.7-.4.3-.8.7-1.1,1.1,1.2,1.6,2.2,3.4,3.3,5.2h0Z"/>
    <path class="cls-2" d="M22.3,124.5c-.5-.8-1-1.6-1.5-2.3,0,.8,0,1.6,0,2.3h0c0,.1,0,.2,0,.4,0,.2,0,.3.2.4,0,0,0,.1.1.2,0,.3.3.6.8.8.2,0,.5.2.8.3.3.1.6.1,1,0h0c-.5-.7-1.1-1.4-1.5-2.1h0Z"/>
    <path class="cls-2" d="M26.1,125.5c-.7-.9-1.3-1.8-1.9-2.8-.9-1.6-1.9-3.1-2.9-4.6,0,0,0,.1,0,.1-.2.5-.3,1.1-.4,1.7.8,1.4,1.8,2.6,2.7,4,.6.9,1.2,1.7,1.8,2.6.4,0,.8-.1,1.2-.2,0,0,.1,0,.2,0-.2-.3-.3-.6-.5-.8h0Z"/>
    <path class="cls-2" d="M25.7,117.5c.6,1,1.3,2,2,3,.7,1,1.3,2,2,3,.4.5.9,1,1.3,1.4.4-.2.9-.3,1.3-.5-.6-.6-1-1.3-1.5-2-.7-1-1.5-2-2.2-3.1-.7-1.2-1.4-2.4-2.1-3.5-.4-.6-.8-1.2-1.1-1.8-.5.2-1,.4-1.4.7.6.9,1.1,1.9,1.6,2.9h0Z"/>
    <path class="cls-2" d="M28.5,113.1c0,0-.2,0-.2,0-.4.1-.9.3-1.5.4.3.6.7,1.2,1.1,1.8.7,1,1.2,2.1,1.9,3.2.6,1,1.4,2,2.1,3,.6.8,1.1,1.8,1.8,2.4.5-.2.9-.4,1.4-.7-2.5-3.1-4.9-6.5-6.6-10.1h0Z"/>
    <path class="cls-2" d="M38.3,117.7c-.5-.7-1-1.4-1.4-2.1-.9-1.4-1.8-2.7-2.7-4-.2,0-.4,0-.6,0-.3,0-.6.1-1,.2.4.9.9,1.8,1.5,2.6,1,1.4,2,2.9,3.2,4.2,0,0,0,0,0,.1,0,0,0,0,0,0h0c.1,0,.2,0,.3,0,.2,0,.4,0,.6,0,.3,0,.6,0,.9,0-.3-.4-.7-.8-1-1.1Z"/>
    <path class="cls-2" d="M40,111.4c-.3-.1-.7-.2-1-.1-.2,0-.4,0-.6,0,.8,1.2,1.7,2.3,2.6,3.4,1,1.3,2.1,2.6,3.2,3.9.4-.2.7-.5.8-.9-.3-.5-.7-1.1-1-1.6-1.3-1.6-2.7-3.2-4.1-4.7h0Z"/>
    <path class="cls-2" d="M41,118.7s0,0,0,0c.2,0,.3,0,.5,0,.3,0,.5,0,.8,0,.2,0,.3,0,.5,0-1-1.1-1.9-2.3-2.8-3.5-1-1.4-2.2-2.6-3.1-4.1-.4,0-.8,0-1.2.1.8,1.1,1.5,2.1,2.2,3.2.5.7.9,1.5,1.4,2.1.5.6,1.1,1.2,1.6,1.9,0,0,0,0,0,0h0Z"/>
    <path class="cls-2" d="M35.9,120.5c0,0,0-.1,0-.1h0c0-.2,0-.2,0-.2,0-.2,0-.3,0-.5,0-.2,0-.3-.1-.5,0,0-.1-.3,0-.1,0,0,0-.1,0-.2,0,0,0-.2,0-.2-.8-1.1-1.7-2.1-2.4-3.2-.7-1-1.2-2-1.7-3.1-.5.1-1,.3-1.4.4,1.7,3.4,3.8,6.5,6.2,9.4,0-.6,0-1.1,0-1.6h0Z"/>
    <path class="cls-2" d="M39.7,120.2c0-.1-.2-.2-.3-.2-.2,0-.4,0-.5,0,0,0-.2,0-.3,0h-.1c-.2,0-.4,0-.6.1,0,0,0,0-.1.1,0,0,0,0,0,.1h0c0,0,0,.2,0,.2,0,0,0,.1,0,.2,0,0,0,0,0,.1h0c0,0,0,.1,0,.1,0,0,0,0,0,.1,0,.1.2.2.3.2s.2,0,.3,0c.2,0,.4,0,.5-.1.1,0,.2-.2.4-.3.2-.1.3-.3.5-.4h0s0,0,0,0c0,0,.1-.2,0-.3h0Z"/>
    <path class="cls-2" d="M10,86.6c0-.1,0-.3,0-.4-.4-1-.8-1.9-.9-3,0-.9,0-1.7,0-2.6,0,0,0-.2,0-.3,0-.2,0-.4,0-.6,0-.2,0-.3,0-.5,0-.1,0-.2-.2-.3-.1,0-.2,0-.3,0,0,0,0,0-.2,0-.3.3-.5.6-.7.9,0,0,0,0,0,0-.2.2-.3.4-.5.6-.2.4-.3.8-.5,1.2-.3.7-.4,1.3-.3,2.1.3,1.5,1.5,3,2.7,3.8.2.1.4,0,.5-.2.2-.2.3-.6.2-.9,0,0,0,0,0-.1h0Z"/>
    <path class="cls-2" d="M18.4,85.9c-1-.5-1.6-1.5-2.4-2.2-.4-.3-.9-.6-1.4-.8-.2,0-.5-.2-.7-.2,0,0,0,0,0,0-.3-.1-.6-.2-.9-.4,0,0,0,0,0,0-.1,0-.2,0-.3-.1,0,0,0,0,0,0-.2-.2-.5,0-.6.3,0,0,0,0,0,0h0c0,0,0,0,0,.1h0c0,.2,0,.4,0,.6,0,0,0,0,0,.2.1.8.3,1.6.6,2.4.3.8.6,1.5,1.1,2.2.2.3.5.5.8.7.4.1.8,0,1.2-.2.4-.2.8-.3,1.2-.5.4-.2.8-.3,1.2-.4,0,0,.2,0,.2-.2h0c.6,0,.9-1,.4-1.3h0Z"/>
    <path class="cls-2" d="M21.8,78.8c-.3-1.7-1.7-2.6-2.5-4-.2-.3-.6,0-.7.2-.2.6-.6,1.1-.9,1.6-.4.5-.7,1.1-.9,1.7-.2.6-.3,1.3-.2,2,0,.5.3.9.6,1.3,0,.2.2.3.3.3.3.4.7.8,1,1.1.2.2.4.4.7.5.1,0,.2,0,.3,0,0,0,.1,0,.2,0,.8-.5,1.4-1.2,1.8-2,.4-.8.5-1.7.3-2.5h0Z"/>
    <path class="cls-2" d="M25.6,81.5c0-.3-.2-.6-.6-.3-1.4,1.1-2.6,2.3-3.7,3.6,0,0-.2.2-.2.4,0,0,0,0,0,0-.1.3-.2.7,0,1,.1.1.3.1.5,0,.2,0,.4,0,.6-.2.4,0,.8-.2,1.2-.3.4-.1.8-.2,1.1-.3.5-.2.8-.5,1-1,.1-.5.1-1,.2-1.5,0-.5,0-1,0-1.6h0Z"/>
    <path class="cls-2" d="M26.7,60.9c-.1,0-.2,0-.3.2-.1.1-.2.3-.3.6,0,.2,0,.3,0,.5-.5,2.4-.5,5-.7,7.5-.2,2.7-.3,5.4-.3,8.1,0,.2,0,.3.2.4,0,0,0,0,0,0,0,0,0,0,.1,0,0,0,0,0,0,0h0s0,0,.1,0h.1c.3,0,.4-.6.4-.8.1-5.1.3-10.2.6-15.3,0-.2,0-.4,0-.6,0-.2,0-.6-.3-.6h0Z"/>
    <path class="cls-2" d="M24.7,59.8c-.2-.3-.6-.3-.7.3-.6,2.5-.7,5.1-1,7.7-.3,2.6-.5,5.3-.4,7.9,0,.2,0,.2,0,.3v.2c0,.5.4.5.7.2.3-.4.4-.8.4-1.2,0-.8,0-1.5.1-2.3,0-1.4.2-2.8.3-4.1.2-2.8.5-5.6.8-8.3,0-.3,0-.5-.2-.5h0Z"/>
    <path class="cls-2" d="M167.7,122.4c0-.6,0-1.1,0-1.7,0-.6,0-1.1,0-1.7,0-.3,0-.5.3-.6.3-.2.6-.1.9-.1,1.3,0,2.6.3,3.9.6.2,0,.4.3.2.6,0,0,0,0,0,0h0c-.2.5-.4.9-.8,1.3,0,0,0,0,0,.1-.2.4-.5.8-.8,1.1-.6.7-1.2,1.4-2,1.8-.1,0-.2,0-.3,0-.3.1-.8.1-1.1,0-.4-.3-.3-1-.3-1.4h0Z"/>
    <path class="cls-2" d="M161.5,122.3c-.6,1-1.2,1.9-1.9,2.9-.3.4-.6.8-.9,1.3,0,0,0,0,0,0-.5-.2-1.1-.3-1.6-.5l.2-.2c.4-.4.7-.8,1-1.2.7-.9,1.3-1.9,1.9-2.9.7-1,1.4-2,2-3.1.5-.9,1-1.8,1.6-2.7.4.3.8.7,1.1,1.1-1.2,1.6-2.2,3.4-3.3,5.2h0Z"/>
    <path class="cls-2" d="M164.4,125c.5-.8,1-1.6,1.5-2.3,0,.8,0,1.6,0,2.3h0c0,.1,0,.2,0,.4,0,.2,0,.3-.2.4,0,0,0,.1-.1.2,0,.3-.3.6-.8.8-.2,0-.5.2-.8.3-.3.1-.6.1-1,0h0c.5-.7,1.1-1.4,1.5-2.1h0Z"/>
    <path class="cls-2" d="M160.5,126c.7-.9,1.3-1.8,1.9-2.8.9-1.6,1.9-3.1,2.9-4.6,0,0,0,.1,0,.1.2.5.4,1.1.4,1.7-.9,1.4-1.8,2.6-2.6,4-.6.9-1.2,1.7-1.8,2.6-.4,0-.8-.1-1.2-.2,0,0-.1,0-.2,0,.2-.3.3-.6.5-.8h0Z"/>
    <path class="cls-2" d="M160.9,118c-.6,1-1.3,2-2,3-.7,1-1.3,2-2,3-.4.5-.9,1-1.3,1.4-.4-.2-.9-.3-1.3-.5.6-.6,1-1.3,1.5-2,.7-1,1.5-2,2.2-3.1.7-1.2,1.4-2.4,2.1-3.5.4-.6.8-1.2,1.1-1.8.5.2,1,.4,1.4.7-.6.9-1.1,1.9-1.6,2.9h0Z"/>
    <path class="cls-2" d="M158.1,113.6c0,0,.1,0,.2,0,.4.1.9.3,1.5.4-.3.6-.7,1.2-1.1,1.8-.7,1-1.2,2.1-1.9,3.2-.6,1-1.4,2-2.1,3-.6.8-1.1,1.8-1.9,2.4-.5-.2-.9-.4-1.4-.7,2.5-3.1,4.9-6.5,6.6-10.1h0Z"/>
    <path class="cls-2" d="M148.3,118.2c.5-.7,1-1.4,1.4-2.1.9-1.4,1.8-2.7,2.7-4,.2,0,.4,0,.6,0,.3,0,.6.1,1,.2-.4.9-.9,1.8-1.5,2.6-1,1.4-2,2.9-3.2,4.2,0,0,0,0,0,.1,0,0,0,0,0,0h0c-.1,0-.2,0-.3,0-.2,0-.4,0-.6,0-.3,0-.6,0-.9,0,.3-.4.7-.8,1-1.1Z"/>
    <path class="cls-2" d="M146.7,111.9c.3-.1.7-.2,1-.1.2,0,.4,0,.6,0-.8,1.2-1.7,2.3-2.6,3.4-1,1.3-2.1,2.6-3.2,3.9-.4-.2-.7-.5-.8-.9.3-.5.7-1.1,1-1.6,1.3-1.6,2.7-3.2,4.1-4.7h0Z"/>
    <path class="cls-2" d="M145.7,119.2s0,0,0,0c-.2,0-.3,0-.5,0-.3,0-.5,0-.8,0-.1,0-.3,0-.5,0,1-1.1,1.9-2.3,2.9-3.5,1-1.4,2.2-2.6,3.1-4.1.4,0,.8,0,1.2.1-.8,1.1-1.5,2.1-2.2,3.2-.5.7-.9,1.5-1.4,2.1-.5.6-1.1,1.2-1.6,1.9,0,0,0,0,0,0h0Z"/>
    <path class="cls-2" d="M150.7,121c0,0,0-.1,0-.1h0c0-.2,0-.2,0-.2,0-.2,0-.3.1-.5,0-.2,0-.3.1-.5,0,0,.1-.3,0-.1,0,0,0-.1,0-.2,0,0,0-.2,0-.2.9-1.1,1.7-2.1,2.4-3.2.7-1,1.2-2,1.7-3.1.5.1,1,.3,1.4.4-1.7,3.4-3.8,6.5-6.2,9.4,0-.6,0-1.1,0-1.6h0Z"/>
    <path class="cls-2" d="M147,120.7c0-.1.2-.2.3-.2.2,0,.4,0,.5,0,.1,0,.2,0,.3,0h.1c.2,0,.4,0,.6.1,0,0,.1,0,.1.1,0,0,0,0,0,.1h0c0,0,0,.2,0,.2,0,0,0,.1,0,.2,0,0,0,0,0,.1h0c0,0,0,.1,0,.1,0,0,0,0,0,.1,0,.1-.2.2-.3.2s-.2,0-.4,0c-.2,0-.4,0-.5-.1-.1,0-.2-.2-.4-.3-.2-.1-.3-.3-.5-.4h0s0,0,0,0c0,0-.1-.2,0-.3h0Z"/>
    <path class="cls-2" d="M176.6,87.1c0-.1,0-.3,0-.4.4-1,.8-1.9.9-3,0-.9,0-1.7,0-2.6,0,0,0-.2,0-.3,0-.2,0-.4,0-.6,0-.2,0-.3,0-.5,0-.1,0-.2.2-.3.1,0,.2,0,.3,0,0,0,.1,0,.1,0,.3.3.5.6.7.9,0,0,0,0,0,0,.2.2.3.4.4.6.2.4.4.8.4,1.2.3.7.4,1.3.3,2.1-.3,1.5-1.5,3-2.7,3.8-.2.1-.4,0-.5-.2-.2-.2-.3-.6-.2-.9,0,0,0,0,0-.1h0Z"/>
    <path class="cls-2" d="M168.3,86.4c1-.5,1.6-1.5,2.4-2.2.4-.3.9-.6,1.4-.8.2,0,.5-.2.7-.2,0,0,0,0,0,0,.3-.1.6-.2.9-.4,0,0,0,0,0,0,.1,0,.2,0,.3-.1,0,0,0,0,0,0,.2-.2.5,0,.6.3,0,0,0,0,0,0h0c0,0,0,0,0,.1h0c0,.2,0,.4,0,.6,0,0,0,0,0,.2-.1.8-.3,1.6-.6,2.4-.3.8-.6,1.5-1.1,2.2-.2.3-.5.5-.8.7-.4.1-.8,0-1.2-.2-.4-.2-.8-.3-1.2-.5-.4-.2-.8-.3-1.2-.4-.1,0-.2,0-.2-.2h0c-.6,0-.9-1-.4-1.3h0Z"/>
    <path class="cls-2" d="M164.9,79.3c.3-1.7,1.7-2.6,2.5-4,.2-.3.6,0,.7.2.2.6.6,1.1.9,1.6.4.5.7,1.1.9,1.7.2.6.4,1.3.2,2,0,.5-.3.9-.6,1.3,0,.2-.2.3-.3.3-.3.4-.6.8-1,1.1-.2.2-.4.4-.7.5-.1,0-.2,0-.3,0,0,0-.1,0-.2,0-.8-.5-1.4-1.2-1.8-2-.4-.8-.5-1.7-.4-2.5h0Z"/>
    <path class="cls-2" d="M161.1,82c0-.3.2-.6.6-.3,1.4,1.1,2.6,2.3,3.7,3.6,0,0,.1.2.2.4,0,0,0,0,0,0,.1.3.2.7,0,1-.1.1-.3.1-.5,0-.2,0-.4,0-.6-.2-.4,0-.8-.2-1.2-.3-.4-.1-.8-.2-1.1-.3-.5-.2-.8-.5-1-1-.1-.5-.1-1-.1-1.5,0-.5,0-1,0-1.6h0Z"/>
    <path class="cls-2" d="M159.9,61.4c.1,0,.2,0,.3.2.1.1.2.3.3.6,0,.2,0,.3,0,.5.5,2.4.5,5,.7,7.5.2,2.7.3,5.4.3,8.1,0,.2,0,.3-.2.4,0,0,0,0,0,0,0,0,0,0-.1,0s0,0,0,0h0s0,0-.1,0h-.1c-.3,0-.4-.6-.4-.8-.1-5.1-.3-10.2-.6-15.3,0-.2,0-.4,0-.6,0-.2,0-.6.3-.6h0Z"/>
    <path class="cls-2" d="M162,60.3c.2-.3.6-.3.7.3.6,2.5.7,5.1,1,7.7.3,2.6.5,5.3.4,7.9,0,.2,0,.2,0,.3v.2c0,.5-.4.5-.7.2-.3-.4-.4-.8-.4-1.2,0-.8,0-1.5-.1-2.3,0-1.4-.2-2.8-.3-4.1-.2-2.8-.5-5.6-.8-8.3,0-.3,0-.5.2-.5h0Z"/>
  </g>
</svg>