<?xml version="1.0" encoding="UTF-8" standalone="no"?>
<svg
   viewBox="0 0 128 128"
   version="1.1"
   id="svg2"
   xmlns="http://www.w3.org/2000/svg"
   xmlns:svg="http://www.w3.org/2000/svg">
  <defs
     id="defs2" />
  <style
     id="style2">path{fill:#000}@media (prefers-color-scheme:dark){path{fill:#fff}}</style>
  <path
     class="cls-1"
     d="M 90.637197,98.162332 C 84.003931,95.935254 81.578129,93.872637 75.739759,92.200615 73.149496,91.46054 69.181871,90.590267 63.980785,90.535446 v 0 c 0,0 0,0 0,0 0,0 0,0 0,0 v 0 c -5.201084,0.05482 -9.168709,0.925094 -11.758972,1.665169 -5.83837,1.672022 -8.271025,3.727786 -14.897438,5.961717 -4.371926,1.473298 -8.353256,2.179108 -10.374757,1.343099 3.172729,6.722349 6.345459,14.623339 9.518188,21.338829 3.542767,0.34263 6.297492,-0.0754 8.2025,-0.5482 4.728257,-1.17179 6.503067,-3.2207 11.395786,-4.58435 3.20014,-0.89084 5.995979,-1.00048 7.914693,-0.95251 v 0 c 0,0 0,0 0,0 0,0 0,0 0,0 v 0 c 1.918713,-0.0548 4.721408,0.0617 7.914695,0.95251 4.892719,1.36365 6.667528,3.41256 11.395786,4.58435 1.905008,0.47283 4.659732,0.89083 8.2025,0.5482 3.172729,-6.72235 6.345459,-14.62333 9.518184,-21.338829 -2.014645,0.836009 -5.995975,0.123346 -10.374753,-1.343099 z"
     id="path1"
     style="fill:#b82827;stroke-width:0px" />
  <path
     class="cls-1"
     d="m 12.059032,94.36602 c 1.37051,2.117438 5.132558,1.459593 5.852076,1.288279 6.201555,-1.445887 7.23629,-3.371453 11.978253,-5.530005 3.666113,-1.473298 6.982746,-1.767958 7.674853,0.102788 0.260397,0.712665 1.733694,5.482038 -7.387046,4.488418 -3.104204,-0.335774 -4.789931,-0.04112 -5.961717,1.254017 -2.439506,2.713608 2.240783,8.497163 4.049856,13.677683 -0.397448,0.23299 -1.822778,1.3431 -4.262285,0.35633 -2.439506,-0.98676 -5.975421,-5.82466 -6.53733,-6.66067 -1.582938,-2.30931 -3.296075,-5.392957 -5.399807,-8.990545 z"
     id="path2"
     style="fill:#b82827;stroke-width:0px" />
  <path
     class="cls-1"
     d="m 0.22468264,68.771756 c 1.75425216,0.671549 5.68076186,1.85704 8.49715886,1.07585 5.2284935,-1.459593 9.3400225,-3.111057 11.9028755,-2.864365 0.13705,4.981802 4.022445,9.751175 7.222585,15.288033 C 24.31824,81.359885 19.994282,81.860121 16.081478,84.114609 12.463332,86.204636 8.9205654,87.561441 4.8912675,87.033795 3.8291226,85.670138 1.7665058,82.997644 0.92364248,79.372647 0.08077914,75.747649 -0.15220747,71.307198 0.22468264,68.764903 Z"
     id="path3"
     style="fill:#b82827;stroke-width:0px" />
  <path
     class="cls-1"
     d="m 115.94366,94.708648 c -1.37051,2.117437 -5.13256,1.459592 -5.85208,1.288279 -6.20156,-1.445888 -7.23629,-3.371454 -11.978254,-5.530006 -3.666112,-1.473298 -6.982745,-1.767957 -7.674853,0.102788 -0.260397,0.712665 -1.733694,5.482038 7.387046,4.488419 3.104201,-0.335775 4.789931,-0.04112 5.961721,1.254016 2.4395,2.713609 -2.24079,8.497156 -4.04986,13.677686 0.39745,0.23299 1.82278,1.3431 4.26228,0.35633 2.43951,-0.98677 5.97543,-5.82466 6.53734,-6.66067 1.58293,-2.30931 3.29607,-5.39296 5.3998,-8.990547 z"
     id="path4"
     style="fill:#b82827;stroke-width:0px" />
  <path
     class="cls-1"
     d="m 127.778,69.114383 c -1.75425,0.67155 -5.68076,1.85704 -8.49715,1.07585 -5.2285,-1.459593 -9.34003,-3.111057 -11.90288,-2.864365 -0.13705,4.981802 -4.02244,9.751175 -7.22258,15.288034 3.52906,-0.911389 7.85302,-0.411153 11.76582,1.843335 3.61814,2.090027 7.16091,3.446831 11.19021,2.919185 1.06214,-1.363657 3.12476,-4.03615 3.96762,-7.661148 0.82916,-3.556472 1.07585,-8.065448 0.69896,-10.607744 z"
     id="path5"
     style="fill:#b82827;stroke-width:0px" />
  <polygon
     class="cls-2"
     points="149.96,54.9 155.48,71.91 173.37,71.91 158.9,82.43 164.43,99.44 149.96,88.92 135.49,99.44 141.01,82.43 126.54,71.91 144.43,71.91 "
     id="polygon5"
     style="fill:#f7bf16;stroke-width:0px"
     transform="matrix(1.6142141,0,0,1.6142141,-178.08897,-77.985693)" />
  <path
     class="cls-2"
     d="m 13.025241,90.583414 c -0.0137,-0.390595 -0.02741,-0.78119 -0.04797,-1.171785 -0.01371,-0.390596 -0.02741,-0.781191 -0.04797,-1.171786 -0.0069,-0.178166 -0.0137,-0.328922 -0.185019,-0.438563 -0.191871,-0.116493 -0.424858,-0.102788 -0.64414,-0.08908 -0.890831,0.06167 -1.767957,0.205576 -2.6382303,0.424858 -0.1713137,0.04111 -0.3083647,0.232986 -0.1713137,0.383742 0.00685,0.0069 0.020558,0.01371 0.02741,0.02056 0,0.0069 0,0.02056 0,0.02741 0.150756,0.308365 0.3083646,0.61673 0.5413512,0.863421 0.013705,0.02056 0.020558,0.04112 0.034263,0.06853 0.1576088,0.280954 0.3700378,0.541351 0.5756138,0.788043 0.397448,0.479678 0.849716,0.925094 1.39792,1.233458 0.06853,0.04112 0.150756,0.04797 0.232986,0.06167 0.226135,0.102788 0.527647,0.102788 0.733223,-0.02741 0.287807,-0.191871 0.198724,-0.67155 0.185019,-0.973062 z"
     id="path26"
     style="fill:#f7bf16;stroke-width:0px" />
  <path
     class="cls-2"
     d="m 17.308084,90.466921 c 0.411152,0.678402 0.83601,1.329394 1.315689,1.959829 0.219281,0.280954 0.438563,0.555056 0.609876,0.870273 0.01371,0.02056 0.02741,0.04112 0.04112,0.06167 0.363185,-0.109641 0.72637,-0.226134 1.089555,-0.34948 -0.04112,-0.04111 -0.07538,-0.07538 -0.116494,-0.116493 -0.246691,-0.260397 -0.472825,-0.541351 -0.692107,-0.822306 -0.479678,-0.630434 -0.897684,-1.308836 -1.329394,-1.966681 -0.465973,-0.69896 -0.952504,-1.391067 -1.384215,-2.117437 -0.363185,-0.609877 -0.705812,-1.233459 -1.062145,-1.850188 -0.294659,0.232987 -0.548203,0.493383 -0.740075,0.788043 0.829159,1.13067 1.541824,2.343571 2.268194,3.542767 z"
     id="path27"
     style="fill:#f7bf16;stroke-width:0px" />
  <path
     class="cls-2"
     d="m 15.30714,92.378782 c -0.328923,-0.548204 -0.692108,-1.068998 -1.055293,-1.589791 0,0.541351 0.02056,1.068997 0.0137,1.562381 h 0.02056 c 0,0.08223 -0.01371,0.157608 0,0.253544 0.0069,0.109641 0.05482,0.191871 0.116493,0.267249 0.02056,0.04797 0.04112,0.102788 0.07538,0.143904 0.02056,0.226134 0.185019,0.43171 0.575614,0.575614 0.171314,0.06167 0.34948,0.130198 0.520794,0.191871 0.185019,0.06853 0.431711,0.07538 0.692107,0.04797 0.02056,0 0.04112,0 0.06167,0 -0.342627,-0.486531 -0.72637,-0.945652 -1.027882,-1.445888 z"
     id="path28"
     style="fill:#f7bf16;stroke-width:0px" />
  <path
     class="cls-2"
     d="m 17.938518,93.057184 c -0.465973,-0.609877 -0.897684,-1.233459 -1.301984,-1.891303 -0.650992,-1.062145 -1.274574,-2.158553 -1.980386,-3.186435 0,0.03426 -0.0137,0.06853 -0.02056,0.102788 -0.150756,0.363185 -0.239839,0.760633 -0.29466,1.171786 0.582467,0.925094 1.240312,1.795367 1.815926,2.720461 0.383742,0.623582 0.856568,1.178639 1.233458,1.795368 0.274102,-0.03426 0.548204,-0.07538 0.794896,-0.123346 0.04111,-0.0069 0.07538,-0.02741 0.10964,-0.04111 -0.116493,-0.191872 -0.232986,-0.383743 -0.363185,-0.555057 z"
     id="path29"
     style="fill:#f7bf16;stroke-width:0px" />
  <path
     class="cls-2"
     d="m 17.684974,87.575146 c 0.424858,0.69896 0.890831,1.370509 1.343099,2.055764 0.452268,0.678402 0.877126,1.384215 1.384215,2.028354 0.280954,0.356333 0.609876,0.664697 0.911388,0.99362 0.301512,-0.116494 0.609877,-0.232987 0.911389,-0.356333 -0.383742,-0.397448 -0.692107,-0.870273 -1.000472,-1.343099 -0.472826,-0.712665 -1.021029,-1.377362 -1.487003,-2.103732 -0.507088,-0.794896 -0.931946,-1.630907 -1.45274,-2.41895 -0.274102,-0.411152 -0.527646,-0.829158 -0.75378,-1.260868 -0.328922,0.130198 -0.664697,0.280954 -0.973062,0.452268 0.376891,0.650992 0.740076,1.308836 1.123818,1.952976 z"
     id="path30"
     style="fill:#f7bf16;stroke-width:0px" />
  <path
     class="cls-2"
     d="m 19.589982,84.51891 c -0.05482,0.01371 -0.102788,0.03426 -0.157609,0.04797 -0.301512,0.08223 -0.644139,0.178166 -1.000472,0.287807 0.226134,0.418005 0.486531,0.822305 0.753781,1.219753 0.465973,0.705812 0.849715,1.45274 1.295131,2.172258 0.438563,0.705812 0.959357,1.349951 1.432182,2.028354 0.383743,0.555056 0.719518,1.199195 1.267722,1.610348 0.315217,-0.143903 0.623582,-0.301512 0.931946,-0.452268 -1.726842,-2.137995 -3.330338,-4.440451 -4.522681,-6.921073 z"
     id="path31"
     style="fill:#f7bf16;stroke-width:0px" />
  <path
     class="cls-2"
     d="m 26.305478,87.705344 c -0.363185,-0.45912 -0.671549,-0.952504 -0.986766,-1.439035 -0.603025,-0.925094 -1.212901,-1.843335 -1.870746,-2.727314 -0.130198,0.01371 -0.253544,0.02056 -0.383743,0.04112 -0.226134,0.02741 -0.438563,0.06852 -0.657844,0.116493 0.308365,0.609877 0.630434,1.212901 1.014177,1.781662 0.67155,0.99362 1.377362,1.973534 2.172257,2.871218 0.02056,0.02741 0.02741,0.05482 0.04797,0.08223 0.02056,0 0.03426,0 0.05482,0.0069 0,0 0,0 0,0 0,0 0,0 0.0137,0 0.07538,0.0069 0.143903,0.0137 0.219281,0.02056 0.143904,0.0069 0.280955,0.01371 0.424858,0.02056 0.212429,0 0.418006,0.0069 0.630435,0.01371 -0.232987,-0.260397 -0.459121,-0.520793 -0.678403,-0.788043 z"
     id="path32"
     style="fill:#f7bf16;stroke-width:0px" />
  <path
     class="cls-2"
     d="m 27.443001,83.333419 c -0.219281,-0.08223 -0.452268,-0.123346 -0.664697,-0.102788 -0.123346,0.01371 -0.253544,0.02056 -0.37689,0.03426 0.548204,0.8086 1.185491,1.548675 1.781662,2.316161 0.69896,0.911388 1.42533,1.795367 2.192816,2.651935 0.253544,-0.150756 0.452268,-0.356332 0.548203,-0.582466 -0.212429,-0.370038 -0.45912,-0.719518 -0.698959,-1.068997 -0.918242,-1.082703 -1.822778,-2.185963 -2.775282,-3.241255 z"
     id="path33"
     style="fill:#f7bf16;stroke-width:0px" />
  <path
     class="cls-2"
     d="m 28.121404,88.397452 c 0,0 0.02741,0.01371 0.04112,0.02056 0.123346,0.02056 0.232986,0.03426 0.363185,0.04797 0.185019,0.02056 0.363185,0.03426 0.548204,0.04797 0.102788,0 0.212429,0 0.315217,0.0069 -0.678402,-0.774337 -1.329394,-1.569233 -1.952976,-2.384686 -0.69896,-0.925094 -1.48015,-1.795368 -2.090027,-2.782134 -0.280955,0.02056 -0.561909,0.04797 -0.842864,0.07538 0.513941,0.719517 1.014177,1.445887 1.500708,2.185962 0.32207,0.493384 0.623582,1.007325 0.99362,1.473298 0.34948,0.438563 0.740075,0.842863 1.096407,1.267721 0.0137,0.01371 0.0137,0.03426 0.02741,0.04797 z"
     id="path34"
     style="fill:#f7bf16;stroke-width:0px" />
  <path
     class="cls-2"
     d="m 24.674572,89.589795 c 0,-0.03426 -0.0069,-0.06853 -0.01371,-0.102788 0,0 0,-0.03426 0,-0.04797 0,-0.0137 0,-0.03426 0,-0.03426 0,-0.02741 -0.0069,-0.05482 -0.0137,-0.08223 -0.02056,-0.116494 -0.04112,-0.226135 -0.06853,-0.342628 -0.02741,-0.109641 -0.05482,-0.212429 -0.09594,-0.32207 -0.0137,-0.03426 -0.08223,-0.178166 -0.02741,-0.07538 -0.02056,-0.04112 -0.04112,-0.08223 -0.06167,-0.130198 -0.02741,-0.05482 -0.04797,-0.116493 -0.05482,-0.171314 -0.582466,-0.719517 -1.137523,-1.466445 -1.658316,-2.227078 -0.459121,-0.671549 -0.829158,-1.384214 -1.192343,-2.103732 -0.328923,0.09594 -0.657845,0.205577 -0.986767,0.308365 1.137523,2.309308 2.631378,4.454156 4.241727,6.461952 0,-0.37689 -0.01371,-0.746927 -0.05482,-1.123818 z"
     id="path35"
     style="fill:#f7bf16;stroke-width:0px" />
  <path
     class="cls-2"
     d="m 27.25113,89.377366 c -0.04112,-0.08223 -0.130198,-0.137051 -0.212429,-0.171314 -0.109641,-0.03426 -0.246692,-0.05482 -0.363185,-0.02741 -0.06852,0.01371 -0.143904,0.02741 -0.219282,0.03426 -0.02741,0 -0.05482,0 -0.08223,0 -0.150756,0 -0.301512,0.0069 -0.438563,0.08908 -0.02741,0.02056 -0.06853,0.04112 -0.08908,0.06853 -0.0137,0.01371 -0.04112,0.05482 -0.04797,0.06853 0,0 0,0.0069 0,0.01371 -0.01371,0.04797 -0.02056,0.09594 -0.03426,0.143903 -0.0137,0.05482 -0.02056,0.102789 -0.02741,0.157609 0,0.02741 -0.0069,0.04797 -0.0137,0.07538 0,0.01371 0,0.02741 0,0.03426 0,0.01371 0.0137,0.04797 0.0069,0.04112 0.01371,0.04797 0,0.03426 0.03426,0.07538 0.04797,0.06853 0.123346,0.109641 0.198724,0.137051 0.07538,0.02741 0.164461,0.04112 0.239839,0.04112 0.130199,0 0.253544,-0.02741 0.363185,-0.102788 0.08908,-0.05482 0.171314,-0.116493 0.260397,-0.178166 0.116493,-0.08908 0.232987,-0.178166 0.34948,-0.267249 0,0 0,0 0,0 0.0069,-0.0069 0.02056,-0.01371 0.02741,-0.02056 0.05482,-0.05482 0.08223,-0.143904 0.04797,-0.219282 z"
     id="path36"
     style="fill:#f7bf16;stroke-width:0px" />
  <path
     class="cls-2"
     d="m 6.9059165,66.393922 c 0,-0.08908 0,-0.178167 -0.041115,-0.260397 -0.308365,-0.685255 -0.5482041,-1.329394 -0.5893194,-2.083175 -0.034263,-0.596171 -0.034263,-1.18549 -0.020558,-1.781662 0.00685,-0.06167 0.013705,-0.130198 0.020558,-0.191871 0.013705,-0.123346 0.013705,-0.246692 0.020558,-0.37689 0,-0.109641 0.00685,-0.232987 -0.020558,-0.342628 -0.02741,-0.08223 -0.061673,-0.164461 -0.1439035,-0.212429 -0.075378,-0.04111 -0.1507561,-0.02056 -0.212429,0.02056 -0.034263,0.01371 -0.068525,0.02056 -0.1027882,0.04797 -0.212429,0.178166 -0.3563325,0.4043 -0.4728258,0.650992 0,0 -0.013705,0.0069 -0.013705,0.01371 C 5.2133373,62.015153 5.1105491,62.159056 5.021466,62.316665 4.8707099,62.577062 4.7816268,62.871721 4.7131014,63.166381 4.52123,63.611796 4.4389995,64.070917 4.52123,64.571153 c 0.1781663,1.041587 1.0073245,2.042059 1.877598,2.597115 0.1439035,0.08908 0.2741019,0 0.3631851,-0.116493 0.1301984,-0.164461 0.1987238,-0.383743 0.1713136,-0.596171 0,-0.02741 -0.020558,-0.04797 -0.02741,-0.07538 z"
     id="path37"
     style="fill:#f7bf16;stroke-width:0px" />
  <path
     class="cls-2"
     d="m 12.641499,65.921096 c -0.67155,-0.34948 -1.082703,-1.04844 -1.672022,-1.500708 C 10.667965,64.180549 10.325338,63.988677 9.9758577,63.837921 9.8113966,63.769391 9.6400829,63.721428 9.4687692,63.67346 9.4550642,63.66656 9.4482112,63.6529 9.4345062,63.64605 9.2220772,63.56382 9.0096482,63.481589 8.7972193,63.399358 c -0.020558,-0.0069 -0.041115,0 -0.061673,0 -0.075378,-0.02741 -0.1439035,-0.05482 -0.2192815,-0.08223 -0.00685,-0.0137 -0.020558,-0.02056 -0.02741,-0.03426 -0.1576086,-0.171314 -0.3426274,0.06853 -0.4248579,0.232987 0,0 0,0.0069 -0.00685,0.0137 0,0 0,0 0,0.0069 -0.013705,0.02741 -0.02741,0.05482 -0.034263,0.07538 0,0 0,0.01371 0,0.02056 -0.041115,0.123346 -0.05482,0.267249 -0.013705,0.383743 0,0.03426 -0.00685,0.06853 0,0.102788 0.089083,0.561909 0.2329866,1.110113 0.4180054,1.651464 0.1850188,0.520793 0.3837427,1.04844 0.7469277,1.48015 0.150756,0.178166 0.3426273,0.370038 0.5687614,0.445416 0.2809546,0.09594 0.5619086,-0.02741 0.8223056,-0.137051 0.280954,-0.109641 0.555056,-0.226134 0.836011,-0.342628 0.260396,-0.10964 0.520793,-0.232986 0.801748,-0.274102 0.06853,-0.02056 0.123346,-0.06167 0.171313,-0.102788 0,0 0,0 0,0 0.390596,0.05482 0.61673,-0.712665 0.274102,-0.897684 z"
     id="path38"
     style="fill:#f7bf16;stroke-width:0px" />
  <path
     class="cls-2"
     d="m 14.964512,61.042082 c -0.185018,-1.144375 -1.18549,-1.809073 -1.726842,-2.761577 -0.137051,-0.239839 -0.4043,-0.02741 -0.479678,0.143904 -0.164461,0.390595 -0.37689,0.75378 -0.644139,1.089555 -0.29466,0.370037 -0.507089,0.719517 -0.637287,1.178638 -0.123346,0.438563 -0.23984,0.897684 -0.164462,1.356804 0.05482,0.328923 0.226135,0.609877 0.424858,0.877127 0.04797,0.102788 0.109641,0.185018 0.205577,0.239839 0.219281,0.267249 0.445415,0.527646 0.705812,0.75378 0.123346,0.109641 0.287807,0.294659 0.452268,0.342627 0.08908,0.02741 0.164462,0 0.232987,-0.04797 0.04111,-0.0069 0.08908,-0.02741 0.137051,-0.06167 0.513941,-0.370038 0.979914,-0.788043 1.247164,-1.377362 0.246691,-0.541352 0.335774,-1.144376 0.239839,-1.733695 z"
     id="path39"
     style="fill:#f7bf16;stroke-width:0px" />
  <path
     class="cls-2"
     d="m 17.575333,62.844302 c -0.02741,-0.239839 -0.171314,-0.390595 -0.397448,-0.219282 -0.945651,0.726371 -1.80222,1.562381 -2.556,2.480623 -0.05482,0.06852 -0.102788,0.171313 -0.123346,0.274102 0,0.0069 -0.0137,0.02056 -0.02056,0.02741 -0.08908,0.178166 -0.157608,0.507088 0.01371,0.671549 0.08908,0.08223 0.198723,0.08223 0.315217,0.06167 0.150756,-0.02741 0.294659,-0.06167 0.438563,-0.102788 0.267249,-0.06852 0.534498,-0.150756 0.794895,-0.239839 0.260397,-0.08223 0.513941,-0.157609 0.774338,-0.239839 0.328922,-0.102788 0.568762,-0.315217 0.67155,-0.657845 0.09594,-0.315217 0.08908,-0.678402 0.102788,-1.007324 0.02056,-0.356333 0.02056,-0.705813 -0.02056,-1.062145 z"
     id="path40"
     style="fill:#f7bf16;stroke-width:0px" />
  <path
     class="cls-2"
     d="m 18.377081,48.776022 c -0.09594,0 -0.164461,0.06853 -0.219282,0.157609 -0.09594,0.08223 -0.171313,0.205576 -0.178166,0.37689 0,0.116493 -0.0137,0.232986 -0.02056,0.342627 -0.315218,1.672022 -0.356333,3.433126 -0.452269,5.118853 -0.10964,1.85704 -0.178166,3.707228 -0.212429,5.564269 0,0.137051 0.06167,0.239839 0.164462,0.267249 0.0069,0.01371 0.01371,0.02056 0.02741,0.03426 0.02056,0.02056 0.05482,0.03426 0.08223,0.04797 0.0137,0.0069 0.03426,0 0.05482,0.0069 0.0137,0 0.03426,0 0.05482,0 0.02741,0 0.05482,-0.01371 0.08223,-0.02741 0.02741,0 0.05482,0 0.08223,0 0.205577,-0.06853 0.280955,-0.397448 0.280955,-0.582467 0.08908,-3.508504 0.232986,-7.010156 0.438563,-10.511808 0.02056,-0.123345 0.03426,-0.253544 0.06167,-0.37689 0.03426,-0.171313 -0.02741,-0.418005 -0.232987,-0.411152 z"
     id="path41"
     style="fill:#f7bf16;stroke-width:0px" />
  <path
     class="cls-2"
     d="m 16.965456,47.981126 c -0.116493,-0.205576 -0.411153,-0.185018 -0.500236,0.212429 -0.411153,1.699432 -0.486531,3.515357 -0.664697,5.255904 -0.191871,1.80222 -0.335775,3.60444 -0.287807,5.413513 0,0.102788 0.02741,0.157608 0.05482,0.205576 0,0.03426 0,0.07538 0,0.109641 0.01371,0.32207 0.274102,0.363185 0.465974,0.143904 0.212429,-0.246692 0.260397,-0.527647 0.280954,-0.842864 0.03426,-0.520793 0.05482,-1.04844 0.08223,-1.569233 0.05482,-0.945652 0.116493,-1.891303 0.191871,-2.836955 0.143904,-1.911861 0.328922,-3.816869 0.520794,-5.721877 0.02056,-0.226134 -0.04797,-0.335775 -0.137051,-0.370038 z"
     id="path42"
     style="fill:#f7bf16;stroke-width:0px" />
  <path
     class="cls-2"
     d="m 114.97745,90.926042 c 0.0137,-0.390596 0.0274,-0.781191 0.048,-1.171786 0.0137,-0.390595 0.0274,-0.78119 0.048,-1.171786 0.007,-0.178166 0.0137,-0.328922 0.18502,-0.438563 0.19187,-0.116493 0.42486,-0.102788 0.64414,-0.08908 0.89083,0.06167 1.76796,0.205577 2.63823,0.424858 0.17131,0.04112 0.30837,0.232987 0.17131,0.383743 -0.007,0.0069 -0.0206,0.0137 -0.0274,0.02056 0,0.0069 0,0.02056 0,0.02741 -0.15075,0.308364 -0.30836,0.616729 -0.54135,0.863421 -0.0137,0.02056 -0.0206,0.04111 -0.0343,0.06852 -0.15761,0.280955 -0.37004,0.541351 -0.57561,0.788043 -0.39745,0.479678 -0.84972,0.925094 -1.39792,1.233459 -0.0685,0.04112 -0.15076,0.04797 -0.23299,0.06167 -0.22613,0.102788 -0.52765,0.102788 -0.73322,-0.02741 -0.28781,-0.191871 -0.19873,-0.671549 -0.18502,-0.973061 z"
     id="path43"
     style="fill:#f7bf16;stroke-width:0px" />
  <path
     class="cls-2"
     d="m 110.6946,90.809548 c -0.41115,0.678403 -0.83601,1.329395 -1.31569,1.959829 -0.21928,0.280954 -0.43856,0.555056 -0.60987,0.870273 -0.0137,0.02056 -0.0274,0.04112 -0.0411,0.06167 -0.36318,-0.10964 -0.72637,-0.226134 -1.08955,-0.34948 0.0411,-0.04112 0.0754,-0.07538 0.11649,-0.116493 0.24669,-0.260397 0.47283,-0.541351 0.69211,-0.822306 0.47968,-0.630434 0.89768,-1.308836 1.32939,-1.966681 0.46598,-0.69896 0.95251,-1.391067 1.38422,-2.117437 0.36318,-0.609877 0.70581,-1.233458 1.06214,-1.850188 0.29466,0.232987 0.54821,0.493384 0.74008,0.788043 -0.82916,1.130671 -1.54183,2.343572 -2.2682,3.542767 z"
     id="path44"
     style="fill:#f7bf16;stroke-width:0px" />
  <path
     class="cls-2"
     d="m 112.69555,92.721409 c 0.32892,-0.548204 0.6921,-1.068997 1.05529,-1.589791 0,0.541351 -0.0206,1.068997 -0.0137,1.562381 h -0.0206 c 0,0.08223 0.0137,0.157608 0,0.253544 -0.007,0.109641 -0.0548,0.191871 -0.1165,0.26725 -0.0206,0.04797 -0.0411,0.102788 -0.0754,0.143903 -0.0206,0.226134 -0.18502,0.43171 -0.57562,0.575614 -0.17131,0.06167 -0.34948,0.130198 -0.52079,0.191871 -0.18502,0.06853 -0.43171,0.07538 -0.69211,0.04797 -0.0206,0 -0.0411,0 -0.0617,0 0.34263,-0.486531 0.72637,-0.945651 1.02788,-1.445887 z"
     id="path45"
     style="fill:#f7bf16;stroke-width:0px" />
  <path
     class="cls-2"
     d="m 110.06417,93.399811 c 0.46597,-0.609876 0.89768,-1.233458 1.30198,-1.891303 0.651,-1.062145 1.27458,-2.158552 1.98039,-3.186434 0,0.03426 0.0137,0.06852 0.0206,0.102788 0.15075,0.363185 0.23984,0.760633 0.29466,1.171785 -0.58247,0.925094 -1.24031,1.795368 -1.81593,2.720462 -0.38374,0.623582 -0.85657,1.178638 -1.23346,1.795367 -0.2741,-0.03426 -0.5482,-0.07538 -0.79489,-0.123346 -0.0411,-0.0069 -0.0754,-0.02741 -0.10964,-0.04112 0.11649,-0.191871 0.23298,-0.383743 0.36318,-0.555056 z"
     id="path46"
     style="fill:#f7bf16;stroke-width:0px" />
  <path
     class="cls-2"
     d="m 110.31771,87.917773 c -0.42485,0.69896 -0.89083,1.37051 -1.3431,2.055765 -0.45226,0.678402 -0.87712,1.384214 -1.38421,2.028354 -0.28095,0.356332 -0.60988,0.664697 -0.91139,0.993619 -0.30151,-0.116493 -0.60988,-0.232987 -0.91139,-0.356332 0.38374,-0.397448 0.69211,-0.870274 1.00047,-1.3431 0.47283,-0.712665 1.02103,-1.377362 1.48701,-2.103732 0.50709,-0.794895 0.93194,-1.630906 1.45274,-2.418949 0.2741,-0.411153 0.52764,-0.829158 0.75378,-1.260869 0.32892,0.130199 0.66469,0.280955 0.97306,0.452268 -0.37689,0.650992 -0.74008,1.308837 -1.12382,1.952976 z"
     id="path47"
     style="fill:#f7bf16;stroke-width:0px" />
  <path
     class="cls-2"
     d="m 108.41271,84.86839 c 0.0548,0.01371 0.10278,0.03426 0.1576,0.04797 0.30152,0.08223 0.64414,0.178167 1.00048,0.287807 -0.22614,0.418006 -0.48654,0.822306 -0.75378,1.219754 -0.46598,0.705812 -0.84972,1.45274 -1.29514,2.172257 -0.43856,0.705813 -0.95935,1.349952 -1.43218,2.028355 -0.38374,0.555056 -0.71952,1.199195 -1.26772,1.610348 -0.31522,-0.143903 -0.62358,-0.301512 -0.93195,-0.452268 1.72685,-2.137995 3.33034,-4.440451 4.52269,-6.921073 z"
     id="path48"
     style="fill:#f7bf16;stroke-width:0px" />
  <path
     class="cls-2"
     d="m 101.69721,88.047972 c 0.36318,-0.459121 0.67155,-0.952504 0.98677,-1.439035 0.60302,-0.925094 1.2129,-1.843336 1.87074,-2.727314 0.1302,0.01371 0.25355,0.02056 0.38374,0.04111 0.22614,0.02741 0.43857,0.06853 0.65785,0.116493 -0.30837,0.609877 -0.63044,1.212901 -1.01418,1.781663 -0.67155,0.993619 -1.37736,1.973533 -2.17226,2.871217 -0.0206,0.02741 -0.0274,0.05482 -0.048,0.08223 -0.0206,0 -0.0343,0 -0.0548,0.0069 0,0 0,0 0,0 0,0 0,0 -0.0137,0 -0.0754,0.0069 -0.1439,0.01371 -0.21928,0.02056 -0.1439,0.0069 -0.28096,0.01371 -0.42486,0.02056 -0.21243,0 -0.418,0.0069 -0.63043,0.01371 0.23298,-0.260397 0.45912,-0.520794 0.6784,-0.788043 z"
     id="path49"
     style="fill:#f7bf16;stroke-width:0px" />
  <path
     class="cls-2"
     d="m 100.55969,83.676046 c 0.21928,-0.08223 0.45226,-0.123345 0.66469,-0.102788 0.12335,0.01371 0.25355,0.02056 0.37689,0.03426 -0.5482,0.808601 -1.18549,1.548676 -1.781659,2.316161 -0.69896,0.911389 -1.42533,1.795367 -2.192815,2.651936 -0.253545,-0.150756 -0.452269,-0.356333 -0.548204,-0.582467 0.212429,-0.370037 0.45912,-0.719517 0.69896,-1.068997 0.918241,-1.082703 1.822777,-2.185963 2.775278,-3.241255 z"
     id="path50"
     style="fill:#f7bf16;stroke-width:0px" />
  <path
     class="cls-2"
     d="m 99.881284,88.740079 c 0,0 -0.02741,0.01371 -0.04112,0.02056 -0.123345,0.02056 -0.232986,0.03426 -0.363185,0.04797 -0.185018,0.02056 -0.363185,0.03426 -0.548203,0.04797 -0.102789,0 -0.212429,0 -0.315218,0.0069 0.678403,-0.774338 1.329395,-1.569234 1.952982,-2.384687 0.69896,-0.925094 1.48015,-1.795367 2.09003,-2.782134 0.28095,0.02056 0.5619,0.04797 0.84286,0.07538 -0.51394,0.719518 -1.01418,1.445888 -1.50071,2.185963 -0.32207,0.493383 -0.62358,1.007324 -0.99362,1.473297 -0.34948,0.438563 -0.74007,0.842864 -1.09641,1.267722 -0.01371,0.01371 -0.01371,0.03426 -0.02741,0.04797 z"
     id="path51"
     style="fill:#f7bf16;stroke-width:0px" />
  <path
     class="cls-2"
     d="m 103.32812,89.932422 c 0,-0.03426 0.007,-0.06853 0.0137,-0.102788 0,0 0,-0.03426 0,-0.04797 0,-0.01371 0,-0.03426 0,-0.03426 0,-0.02741 0.007,-0.05482 0.0137,-0.08223 0.0206,-0.116493 0.0411,-0.226134 0.0685,-0.342627 0.0274,-0.109641 0.0548,-0.212429 0.0959,-0.32207 0.0137,-0.03426 0.0822,-0.178166 0.0274,-0.07538 0.0206,-0.04112 0.0411,-0.08223 0.0617,-0.130199 0.0274,-0.05482 0.048,-0.116493 0.0548,-0.171313 0.58247,-0.719518 1.13752,-1.466445 1.65832,-2.227078 0.45912,-0.67155 0.82915,-1.384215 1.19234,-2.103732 0.32892,0.09593 0.65784,0.205576 0.98677,0.308364 -1.13753,2.309309 -2.63138,4.454156 -4.24173,6.461953 0,-0.376891 0.0137,-0.746928 0.0548,-1.123818 z"
     id="path52"
     style="fill:#f7bf16;stroke-width:0px" />
  <path
     class="cls-2"
     d="m 100.75156,89.719993 c 0.0411,-0.08223 0.1302,-0.137051 0.21243,-0.171313 0.10964,-0.03426 0.24669,-0.05482 0.36318,-0.02741 0.0685,0.01371 0.1439,0.02741 0.21928,0.03426 0.0274,0 0.0548,0 0.0822,0 0.15076,0 0.30152,0.0069 0.43857,0.08908 0.0274,0.02056 0.0685,0.04112 0.0891,0.06853 0.0137,0.01371 0.0411,0.05482 0.048,0.06853 0,0 0,0.0069 0,0.01371 0.0137,0.04797 0.0206,0.09594 0.0343,0.143904 0.0137,0.05482 0.0206,0.102788 0.0274,0.157608 0,0.02741 0.007,0.04797 0.0137,0.07538 0,0.01371 0,0.02741 0,0.03426 0,0.01371 -0.0137,0.04797 -0.007,0.04112 -0.0137,0.04797 0,0.03426 -0.0343,0.07538 -0.048,0.06853 -0.12335,0.109641 -0.19872,0.137051 -0.0754,0.02741 -0.16447,0.04112 -0.23984,0.04112 -0.1302,0 -0.25355,-0.02741 -0.36319,-0.102789 -0.0891,-0.05482 -0.17131,-0.116493 -0.26039,-0.178166 -0.1165,-0.08908 -0.23299,-0.178166 -0.34948,-0.267249 0,0 0,0 0,0 -0.007,-0.0069 -0.0206,-0.01371 -0.0274,-0.02056 -0.0548,-0.05482 -0.0822,-0.143903 -0.048,-0.219281 z"
     id="path53"
     style="fill:#f7bf16;stroke-width:0px" />
  <path
     class="cls-2"
     d="m 121.09677,66.736549 c 0,-0.08908 0,-0.178166 0.0411,-0.260397 0.30836,-0.685255 0.5482,-1.329394 0.58932,-2.083174 0.0343,-0.596172 0.0343,-1.185491 0.0206,-1.781663 -0.007,-0.06167 -0.0137,-0.130198 -0.0206,-0.191871 -0.0137,-0.123346 -0.0137,-0.246692 -0.0206,-0.37689 0,-0.109641 -0.007,-0.232987 0.0206,-0.342627 0.0274,-0.08223 0.0617,-0.164462 0.1439,-0.212429 0.0754,-0.04112 0.15075,-0.02056 0.21243,0.02056 0.0343,0.01371 0.0685,0.02056 0.10279,0.04797 0.21242,0.178166 0.35633,0.4043 0.47282,0.650992 0,0 0.0137,0.0069 0.0137,0.01371 0.11649,0.137051 0.21928,0.280955 0.30836,0.438563 0.15076,0.260397 0.23984,0.555057 0.30837,0.849716 0.19187,0.445416 0.2741,0.904536 0.19187,1.404772 -0.17817,1.041588 -1.00733,2.042059 -1.8776,2.597116 -0.1439,0.08908 -0.2741,0 -0.36319,-0.116493 -0.13019,-0.164462 -0.19872,-0.383743 -0.17131,-0.596172 0,-0.02741 0.0206,-0.04797 0.0274,-0.07538 z"
     id="path54"
     style="fill:#f7bf16;stroke-width:0px" />
  <path
     class="cls-2"
     d="m 115.36119,66.263723 c 0.67155,-0.34948 1.0827,-1.04844 1.67202,-1.500708 0.30151,-0.239839 0.64414,-0.43171 0.99362,-0.582466 0.16446,-0.06853 0.33577,-0.116494 0.50709,-0.164461 0.0137,-0.0069 0.0206,-0.02056 0.0343,-0.02741 0.21243,-0.08223 0.42486,-0.164461 0.63729,-0.246691 0.0206,-0.0069 0.0411,0 0.0617,0 0.0754,-0.02741 0.1439,-0.05482 0.21928,-0.08223 0.007,-0.0137 0.0206,-0.02056 0.0274,-0.03426 0.15761,-0.171313 0.34263,0.06853 0.42486,0.232987 0,0 0,0.0069 0.007,0.0137 0,0 0,0 0,0.0069 0.0137,0.02741 0.0274,0.05482 0.0343,0.07538 0,0 0,0.01371 0,0.02056 0.0411,0.123346 0.0548,0.26725 0.0137,0.383743 0,0.03426 0.007,0.06852 0,0.102788 -0.0891,0.561909 -0.23299,1.110113 -0.418,1.651464 -0.18502,0.520794 -0.38375,1.04844 -0.74693,1.48015 -0.15076,0.178167 -0.34263,0.370038 -0.56876,0.445416 -0.28096,0.09594 -0.56191,-0.02741 -0.82231,-0.137051 -0.28095,-0.109641 -0.55506,-0.226134 -0.83601,-0.342627 -0.2604,-0.109641 -0.52079,-0.232987 -0.80175,-0.274102 -0.0685,-0.02056 -0.12334,-0.06167 -0.17131,-0.102788 0,0 0,0 0,0 -0.3906,0.05482 -0.61673,-0.712665 -0.2741,-0.897684 z"
     id="path55"
     style="fill:#f7bf16;stroke-width:0px" />
  <path
     class="cls-2"
     d="m 113.03817,61.384709 c 0.18502,-1.144375 1.1855,-1.809072 1.72685,-2.761576 0.13705,-0.239839 0.4043,-0.02741 0.47968,0.143903 0.16446,0.390595 0.37689,0.75378 0.64413,1.089555 0.29466,0.370038 0.50709,0.719518 0.63729,1.178638 0.12335,0.438563 0.23984,0.897684 0.16446,1.356805 -0.0548,0.328922 -0.22613,0.609877 -0.42486,0.877126 -0.048,0.102788 -0.10964,0.185019 -0.20557,0.239839 -0.21928,0.267249 -0.44542,0.527646 -0.70581,0.75378 -0.12335,0.109641 -0.28781,0.29466 -0.45227,0.342628 -0.0891,0.02741 -0.16446,0 -0.23299,-0.04797 -0.0411,-0.0069 -0.0891,-0.02741 -0.13705,-0.06167 -0.51394,-0.370038 -0.97991,-0.788043 -1.24716,-1.377362 -0.2467,-0.541351 -0.33578,-1.144376 -0.23984,-1.733695 z"
     id="path56"
     style="fill:#f7bf16;stroke-width:0px" />
  <path
     class="cls-2"
     d="m 110.42735,63.186929 c 0.0274,-0.239839 0.17132,-0.390595 0.39745,-0.219281 0.94565,0.72637 1.80222,1.562381 2.556,2.480622 0.0548,0.06853 0.10279,0.171314 0.12335,0.274102 0,0.0069 0.0137,0.02056 0.0206,0.02741 0.0891,0.178166 0.1576,0.507089 -0.0137,0.67155 -0.0891,0.08223 -0.19872,0.08223 -0.31522,0.06167 -0.15075,-0.02741 -0.29466,-0.06167 -0.43856,-0.102789 -0.26725,-0.06853 -0.5345,-0.150756 -0.7949,-0.239839 -0.26039,-0.08223 -0.51394,-0.157608 -0.77433,-0.239839 -0.32893,-0.102788 -0.56876,-0.315217 -0.67155,-0.657844 -0.0959,-0.315218 -0.0891,-0.678403 -0.10279,-1.007325 -0.0206,-0.356332 -0.0206,-0.705812 0.0206,-1.062145 z"
     id="path57"
     style="fill:#f7bf16;stroke-width:0px" />
  <path
     class="cls-2"
     d="m 109.62561,49.118649 c 0.0959,0 0.16446,0.06853 0.21928,0.157609 0.0959,0.08223 0.17131,0.205576 0.17816,0.37689 0,0.116493 0.0137,0.232987 0.0206,0.342627 0.31522,1.672022 0.35633,3.433127 0.45227,5.118853 0.10964,1.857041 0.17817,3.707229 0.21243,5.564269 0,0.137051 -0.0617,0.239839 -0.16446,0.267249 -0.007,0.01371 -0.0137,0.02056 -0.0274,0.03426 -0.0206,0.02056 -0.0548,0.03426 -0.0822,0.04797 -0.0137,0.0069 -0.0343,0 -0.0548,0.0069 -0.0137,0 -0.0343,0 -0.0548,0 -0.0274,0 -0.0548,-0.01371 -0.0822,-0.02741 -0.0274,0 -0.0548,0 -0.0822,0 -0.20557,-0.06853 -0.28095,-0.397447 -0.28095,-0.582466 -0.0891,-3.508505 -0.23299,-7.010156 -0.43856,-10.511808 -0.0206,-0.123346 -0.0343,-0.253544 -0.0617,-0.37689 -0.0343,-0.171314 0.0274,-0.418006 0.23299,-0.411153 z"
     id="path58"
     style="fill:#f7bf16;stroke-width:0px" />
  <path
     class="cls-2"
     d="m 111.03723,48.323754 c 0.11649,-0.205577 0.41115,-0.185019 0.50024,0.212429 0.41115,1.699432 0.48653,3.515357 0.66469,5.255904 0.19188,1.80222 0.33578,3.60444 0.28781,5.413512 0,0.102788 -0.0274,0.157609 -0.0548,0.205577 0,0.03426 0,0.07538 0,0.10964 -0.0137,0.32207 -0.2741,0.363185 -0.46597,0.143904 -0.21243,-0.246692 -0.2604,-0.527646 -0.28096,-0.842863 -0.0343,-0.520794 -0.0548,-1.04844 -0.0822,-1.569234 -0.0548,-0.945651 -0.11649,-1.891303 -0.19187,-2.836954 -0.1439,-1.911861 -0.32892,-3.816869 -0.52079,-5.721878 -0.0206,-0.226134 0.048,-0.335774 0.13705,-0.370037 z"
     id="path59"
     style="fill:#f7bf16;stroke-width:0px" />
</svg>
